<?xml version="1.0" encoding="UTF-8" standalone="no"?>
<!DOCTYPE svg PUBLIC "-//W3C//DTD SVG 1.1//EN" "http://www.w3.org/Graphics/SVG/1.1/DTD/svg11.dtd">
<svg width="100%" height="100%" viewBox="0 0 659 852" version="1.1" xmlns="http://www.w3.org/2000/svg" xmlns:xlink="http://www.w3.org/1999/xlink" xml:space="preserve" xmlns:serif="http://www.serif.com/" style="fill-rule:evenodd;clip-rule:evenodd;stroke-linecap:round;stroke-linejoin:round;">
    <g id="Mickey_Mouse" transform="matrix(1,0,0,1,-220.784,-75.0223)">
        <g id="hand_right">
            <g id="hand">
                <path id="S1" d="M354.825,572.294C370.899,606.878 360.247,629.626 344.69,636.857C329.134,644.087 304.877,637.564 288.803,602.98C272.729,568.396 283.381,545.648 298.937,538.418C314.493,531.187 338.75,537.71 354.825,572.294Z" style="stroke:black;stroke-width:5px;"/>
            </g>
            <g id="little_finger">
                <path id="S3" d="M287.048,631.087C281.196,645.385 277.87,679.595 301.251,682.358C321.722,684.778 306.328,650.429 307.055,642.106C307.625,635.574 313.834,630.776 313.657,624.084C313.543,619.742 308.699,613.175 304.517,613.946C294.815,615.734 289.354,625.452 287.048,631.087Z" style="stroke:black;stroke-width:4px;"/>
            </g>
            <g id="middle_finger">
                <path id="S11" serif:id="S1" d="M286.175,581.018C273.899,586.252 261.551,592.285 248.219,593.778C242.539,594.413 233.455,593.812 229.266,598.453C226.053,602.012 227.763,608.24 229.312,612.064C233.565,622.564 247.614,628.434 258.197,628.158C268.572,627.888 275.501,619.483 283.177,613.417C288.748,609.015 295.896,604.268 299.337,597.94C304.002,589.359 296.018,576.823 286.175,581.018Z" style="stroke:black;stroke-width:4px;"/>
            </g>
            <g id="index_finger">
                <path id="S12" serif:id="S1" d="M272.986,546.029C259.481,535.519 257.612,514.993 240.942,514.903C226.498,514.824 220.126,531.313 223.807,541.123C229.294,555.75 249.069,565.611 265.635,571.902C282.504,578.308 301.384,567.129 291.442,554.256C288.523,550.477 278.444,550.277 272.986,546.029Z" style="stroke:black;stroke-width:4px;"/>
            </g>
            <g id="thumb">
                <path id="S13" serif:id="S1" d="M332.708,534.622C336.672,520.191 354.778,506.852 352.121,493.843C350.03,483.607 337.919,471.041 327.002,477.731C317.687,483.438 311.826,494.9 309.466,505.207C306.642,517.538 306.978,532.515 312.172,544.215C316.903,554.875 327.699,550.627 332.95,546.682C336.194,544.244 331.447,539.215 332.708,534.622Z" style="stroke:black;stroke-width:4px;"/>
            </g>
        </g>
        <g id="arm_right">
            <path id="S14" serif:id="S1" d="M507.237,510.055C517.09,498.598 517.96,480.437 507.195,469.436C503.434,467.169 505.475,467.988 501.178,466.793C481.043,467.006 471.473,500.374 456.868,511.302C422.467,537.04 356.692,548.504 322.234,571.754C305.861,582.802 323.519,607.544 341.439,602.701C373.867,593.936 419.668,580.411 449.786,559.657C468.229,546.947 491.094,528.827 507.237,510.055Z" style="stroke:black;stroke-width:5px;"/>
        </g>
        <g id="Tail">
            <path d="M551.954,656.276C552.041,656.555 555.771,669.353 557.982,673.776L544.053,680.55C541.141,674.44 537.174,660.899 537.26,661.174L551.954,656.276Z" style="fill-rule:nonzero;"/>
            <path d="M557.982,673.776C561.438,680.936 567.412,689.862 572.601,696.071L560.699,705.983C554.934,699.038 548.083,688.782 544.053,680.55L557.982,673.776Z" style="fill-rule:nonzero;"/>
            <path d="M557.982,673.776L544.053,680.55" style="fill:none;fill-rule:nonzero;stroke:black;stroke-width:1px;stroke-linecap:butt;"/>
            <path d="M572.601,696.071C580.688,705.807 592.899,717.499 603.138,724.641L594.247,737.324C582.936,729.358 569.455,716.471 560.699,705.983L572.601,696.071Z" style="fill-rule:nonzero;"/>
            <path d="M572.601,696.071L560.699,705.983" style="fill:none;fill-rule:nonzero;stroke:black;stroke-width:1px;stroke-linecap:butt;"/>
            <path d="M603.138,724.641C628.548,742.516 666.944,760.554 696.916,770.664L692.726,783.075C662.145,772.742 621.171,756.136 594.247,737.324L603.138,724.641Z" style="fill-rule:nonzero;"/>
            <path d="M603.138,724.641L594.247,737.324" style="fill:none;fill-rule:nonzero;stroke:black;stroke-width:1px;stroke-linecap:butt;"/>
            <path d="M696.916,770.664C724.578,780.057 764.502,784.388 794.211,791.083L791.326,803.86C762.455,797.326 721.963,792.892 692.726,783.075L696.916,770.664Z" style="fill-rule:nonzero;"/>
            <path d="M696.916,770.664L692.726,783.075" style="fill:none;fill-rule:nonzero;stroke:black;stroke-width:1px;stroke-linecap:butt;"/>
            <path d="M794.211,791.083C812.881,795.404 845.035,793.397 862.982,808.409L854.255,818.177C841.9,806.115 812.292,808.49 791.326,803.86L794.211,791.083Z" style="fill-rule:nonzero;"/>
            <path d="M794.211,791.083L791.326,803.86" style="fill:none;fill-rule:nonzero;stroke:black;stroke-width:1px;stroke-linecap:butt;"/>
            <path d="M862.982,808.409C871.398,816.116 880.29,832.498 878.594,845.162L865.704,842.835C867.585,835.687 860.852,823.884 854.255,818.177L862.982,808.409Z" style="fill-rule:nonzero;"/>
            <path d="M862.982,808.409L854.255,818.177" style="fill:none;fill-rule:nonzero;stroke:black;stroke-width:1px;stroke-linecap:butt;"/>
            <path d="M878.594,845.162C875.809,856.311 863.647,864.986 856.906,869.839L849.254,859.208C856.155,854.241 865.502,848.228 865.704,842.835L878.594,845.162Z" style="fill-rule:nonzero;"/>
            <path d="M878.594,845.162L865.704,842.835" style="fill:none;fill-rule:nonzero;stroke:black;stroke-width:1px;stroke-linecap:butt;"/>
            <path d="M856.906,869.839C849.38,875.16 837.836,878.455 829.997,881.132L826.383,870.545C834.068,867.922 843.466,863.472 849.254,859.208L856.906,869.839Z" style="fill-rule:nonzero;"/>
            <path d="M856.906,869.839L849.254,859.208" style="fill:none;fill-rule:nonzero;stroke:black;stroke-width:1px;stroke-linecap:butt;"/>
            <path d="M829.997,881.132C821.321,884.078 809.342,886.018 800.599,887.49L798.917,877.496C807.451,876.061 818.478,873.258 826.383,870.545L829.997,881.132Z" style="fill-rule:nonzero;"/>
            <path d="M829.997,881.132L826.383,870.545" style="fill:none;fill-rule:nonzero;stroke:black;stroke-width:1px;stroke-linecap:butt;"/>
            <path d="M800.599,887.49C791.517,889.008 770.525,888.551 770.666,888.537L769.919,882.56C770.066,882.545 790.471,878.927 798.917,877.496L800.599,887.49Z" style="fill-rule:nonzero;"/>
            <path d="M800.599,887.49L798.917,877.496" style="fill:none;fill-rule:nonzero;stroke:black;stroke-width:1px;stroke-linecap:butt;"/>
        </g>
        <g id="Leg_Right">
            <g id="shoe_right">
                <path id="S2" d="M264.865,816.581C255.29,844.95 267.446,861.54 279.415,874.292C297.016,893.044 318.836,898.946 365.795,897.686C377.659,897.368 392.885,906.456 403.648,909.191C431.608,916.298 436.118,880.659 418.633,866.8C395.03,848.093 360.759,854.047 332.742,844.888C312.017,838.113 272.954,792.614 264.865,816.581Z" style="fill:white;stroke:black;stroke-width:5px;"/>
                <path id="S31" serif:id="S3" d="M351.925,828.702C339.11,821.329 294.908,796.759 280.97,802.312C247.838,815.512 274.236,865.046 294.228,877.106C318.826,891.944 352.885,886.319 379.77,892.265C390.786,894.701 408.505,902.835 419.694,898.975C438.481,892.493 424.093,859.899 416.183,850.627C402.162,834.189 370.591,842.355 352.749,829.338C352.468,829.133 352.226,828.875 351.925,828.702Z" style="fill:white;stroke:black;stroke-width:5px;"/>
                <path id="S4" d="M421.092,839.054C417.948,837.407 416.008,834.094 412.91,832.375C409.754,830.622 406.227,830.669 402.796,829.987C400.223,829.476 397.864,828.16 395.27,827.693C384.694,825.786 378.119,815.713 367.714,813.772C359.461,812.233 355.006,818.301 355.42,826.031C355.679,830.873 358.639,835.99 360.941,840.12C363.543,844.786 367.756,847.401 372.139,850.26C382.491,857.014 393.029,859.712 405.473,860.541C410.164,860.853 421.884,858.751 424.447,853.935C426.529,850.024 422.869,846.502 422.937,842.926C422.476,841.958 422.015,840.99 421.554,840.022C421.4,839.699 421.409,839.22 421.092,839.054Z" style="fill:white;stroke:black;stroke-width:5px;"/>
            </g>
            <g id="leg_right">
                <path id="S21" serif:id="S2" d="M444.732,673.616C457.689,653.84 480.44,670.053 474.759,686.524C473.892,689.038 453.989,739.962 444.141,762.466C433.453,786.888 408.431,839.509 406.111,842.776C390.245,849.787 372.84,836.707 373.056,826.83C375.2,822.828 399.951,771.761 411.068,747.966C421.432,725.783 442.574,676.91 444.732,673.616Z"/>
            </g>
            <g id="Pant_sleeve_right">
                <path id="S15" serif:id="S1" d="M412.822,650.44C409.171,658.71 402.101,690.415 406.338,698.239C413.739,711.906 442.683,715.51 456.174,716.981C462.832,717.706 487.349,722.614 492.331,717.746C498.507,711.711 493.623,689.171 492.962,681.447C491.819,668.107 492.351,653.408 485.643,641.359C474.547,621.431 440.896,617.886 422.931,629.468C419.916,631.889 417.763,634.356 415.765,637.669C415.322,638.578 414.933,639.42 414.586,640.3C413.595,643.487 413.096,646.347 412.833,649.677C412.813,649.931 412.925,650.207 412.822,650.44Z" style="fill:white;stroke:black;stroke-width:5px;"/>
            </g>
        </g>
        <g id="Leg_left">
            <g id="shoe_left">
                <path id="S22" serif:id="S2" d="M491.272,867.974C493.227,898.762 511.299,909.83 527.693,917.311C551.801,928.312 574.909,925.413 619.188,905.864C630.376,900.925 648.443,903.64 659.773,902.043C689.206,897.894 679.582,862.153 657.497,855.772C627.683,847.159 597.336,866.226 567.045,868.441C544.64,870.079 489.619,841.963 491.272,867.974Z" style="fill:white;stroke:black;stroke-width:5px;"/>
                <path id="S32" serif:id="S3" d="M579.01,845.514C563.912,843.491 512.169,837.337 501.051,848.077C474.62,873.608 519.142,910.52 542.914,914.206C572.164,918.742 602.438,900.071 630.393,895.235C641.848,893.253 661.92,894.085 671.079,886.033C686.458,872.513 660.005,847.059 648.841,841.309C629.051,831.116 602.141,851.238 580.044,845.798C579.697,845.712 579.365,845.561 579.01,845.514Z" style="fill:white;stroke:black;stroke-width:5px;"/>
                <path id="S41" serif:id="S4" d="M649,828.358C645.359,828.017 642.214,825.616 638.589,825.186C634.896,824.749 631.551,826.171 628.013,826.862C625.361,827.381 622.597,827.048 619.942,827.615C609.113,829.93 598.909,822.896 588.23,825.11C579.76,826.867 577.884,834.393 581.299,841.602C583.438,846.116 588.26,849.839 592.068,852.876C596.372,856.309 601.41,857.155 606.706,858.169C619.214,860.564 630.316,859.018 642.503,854.946C647.098,853.411 657.45,846.828 658.012,841.235C658.469,836.693 653.604,834.765 652.271,831.328C651.453,830.586 650.636,829.843 649.818,829.101C649.545,828.853 649.366,828.393 649,828.358Z" style="fill:white;stroke:black;stroke-width:5px;"/>
            </g>
            <g id="leg_left">
                <path id="S23" serif:id="S2" d="M545.838,687.873C540.93,664.75 568.042,659.812 576.003,675.306C577.351,677.931 602.386,733.196 612.43,758.532C621.156,780.549 638.35,829.371 638.992,832.872C631.757,850.294 616.998,850.815 604.405,845.178C602.898,842.006 586.477,794.245 578.429,772.55C568.961,747.03 546.747,692.155 545.838,687.873Z"/>
            </g>
            <g id="Pant_Sleeve_left">
                <path id="S16" serif:id="S1" d="M517.777,710.739C527.015,741.612 567.131,724.767 587.582,715.67C595.683,712.067 613.291,705.456 610.302,693.926C605.536,675.542 590.555,643.58 574.145,633.031C548.817,616.749 516.72,632.376 510.116,660.005C506.175,676.489 511.932,693.145 517.108,708.69C517.335,709.372 517.571,710.051 517.777,710.739Z" style="fill:white;stroke:black;stroke-width:5px;"/>
            </g>
        </g>
        <g id="upper_body">
            <path id="S17" serif:id="S1" d="M440.421,649.092C516.374,675.097 562.695,647.625 580.502,602.889C588.423,582.989 578.954,560.659 589.388,540.971C604.031,513.344 639.388,476.937 604.973,448.725C554.056,406.986 491.257,458.677 456.793,493.66C378.184,573.454 400.882,635.554 440.421,649.092Z" style="stroke:black;stroke-width:5px;"/>
        </g>
        <g id="lower_body">
            <g id="lower_body1" serif:id="lower_body">
                <path id="S18" serif:id="S1" d="M501.845,509.743C575.593,509.744 604.929,562.6 613.446,607.53C618.119,632.179 600.573,666.56 582.271,682.728C574.917,689.224 560.319,689.507 551.487,693.783C543.778,697.516 529.097,705.013 518.676,707.042C508.566,709.01 498.175,709.397 484.346,707.1C468.811,704.52 451.428,697.585 435.674,687.441C412.487,672.513 386.603,635.625 390.243,607.53C396.12,562.179 428.097,509.743 501.845,509.743Z"/>
                <path d="M501.845,507.353C576.684,507.617 607.158,561.737 615.795,607.085L611.098,607.975C602.7,563.463 574.503,511.871 501.845,512.134L501.845,507.353Z" style="fill-rule:nonzero;"/>
                <path d="M615.795,607.085C620.455,632.689 600.963,666.836 582.587,683.086L581.954,682.369C600.184,666.283 615.784,631.67 611.098,607.975L615.795,607.085Z" style="fill-rule:nonzero;"/>
                <path d="M615.795,607.085L611.098,607.975" style="fill:none;fill-rule:nonzero;stroke:black;stroke-width:1px;stroke-linecap:butt;"/>
                <path d="M551.716,694.257C544.014,697.986 529.962,707.293 519.141,709.435L518.21,704.649C528.231,702.734 543.542,697.046 551.258,693.31L551.716,694.257Z" style="fill-rule:nonzero;"/>
                <path d="M551.716,694.257L551.258,693.31" style="fill:none;fill-rule:nonzero;stroke:black;stroke-width:1px;stroke-linecap:butt;"/>
                <path d="M519.141,709.435C508.845,711.432 498.096,710.398 484.182,708.091L484.511,706.11C498.254,708.396 508.288,706.588 518.21,704.649L519.141,709.435Z" style="fill-rule:nonzero;"/>
                <path d="M519.141,709.435L518.21,704.649" style="fill:none;fill-rule:nonzero;stroke:black;stroke-width:1px;stroke-linecap:butt;"/>
                <path d="M435.208,688.165C411.863,673.104 384.341,636.399 387.873,607.223L392.614,607.837C388.864,634.851 413.112,671.921 436.14,686.718L435.208,688.165Z" style="fill-rule:nonzero;"/>
                <path d="M435.208,688.165L436.14,686.718" style="fill:none;fill-rule:nonzero;stroke:black;stroke-width:1px;stroke-linecap:butt;"/>
                <path d="M387.873,607.223C393.891,561.316 427.035,507.602 501.845,507.353L501.845,512.134C429.159,511.885 398.349,563.042 392.614,607.837L387.873,607.223Z" style="fill-rule:nonzero;"/>
                <path d="M387.873,607.223L392.614,607.837" style="fill:none;fill-rule:nonzero;stroke:black;stroke-width:1px;stroke-linecap:butt;"/>
            </g>
            <g id="pants">
                <clipPath id="_clip1">
                    <path id="S19" serif:id="S1" d="M501.845,509.743C575.593,509.744 604.929,562.6 613.446,607.53C618.119,632.179 600.573,666.56 582.271,682.728C574.917,689.224 560.319,689.507 551.487,693.783C543.778,697.516 529.097,705.013 518.676,707.042C508.566,709.01 498.175,709.397 484.346,707.1C468.811,704.52 451.428,697.585 435.674,687.441C412.487,672.513 386.603,635.625 390.243,607.53C396.12,562.179 428.097,509.743 501.845,509.743Z"/>
                </clipPath>
                <g clip-path="url(#_clip1)">
                    <path d="M395.438,572.836C395.438,579.55 408.118,586.411 412.197,591.135C424.53,605.416 436.844,610.906 454.584,616.632C474.523,623.068 491.157,627.565 512.643,626.008C540.252,624.009 565.713,615.799 589.835,602.881C595.877,599.646 602.532,596.8 607.971,592.588C609.733,591.223 612.899,583.558 615.281,584.36C619.18,585.672 617.843,596.302 617.85,599.156C617.892,615.558 612.058,632.24 609.942,648.602C607.892,664.455 602.25,679.367 594.306,693.277C582.608,713.761 547.467,718.151 526.595,719.833C503.66,721.682 480.628,724.992 457.844,719.901C449.211,717.972 441.647,713.428 433.47,710.223C423.114,706.164 411.369,701.477 402.788,694.104C397.644,689.684 394.248,682.345 390.547,676.733C379.06,659.316 377.691,637.245 377.69,617.013C377.688,602.064 379.999,587.165 391.001,576.164C392.308,574.856 395.438,570.987 395.438,572.836Z" style="fill:white;stroke:black;stroke-width:5px;"/>
                </g>
            </g>
            <g id="button_right">
                <clipPath id="_clip2">
                    <path id="S110" serif:id="S1" d="M501.845,509.743C575.593,509.744 604.929,562.6 613.446,607.53C618.119,632.179 600.573,666.56 582.271,682.728C574.917,689.224 560.319,689.507 551.487,693.783C543.778,697.516 529.097,705.013 518.676,707.042C508.566,709.01 498.175,709.397 484.346,707.1C468.811,704.52 451.428,697.585 435.674,687.441C412.487,672.513 386.603,635.625 390.243,607.53C396.12,562.179 428.097,509.743 501.845,509.743Z"/>
                </clipPath>
                <g clip-path="url(#_clip2)">
                    <path d="M446.765,623.439C459.234,627.683 463.757,637.832 461.165,645.448C458.573,653.063 448.798,658.346 436.329,654.103C423.86,649.859 419.337,639.71 421.929,632.095C424.52,624.479 434.295,619.195 446.765,623.439Z" style="fill:white;stroke:black;stroke-width:5px;"/>
                </g>
            </g>
            <g id="button_left">
                <clipPath id="_clip3">
                    <path id="S111" serif:id="S1" d="M501.845,509.743C575.593,509.744 604.929,562.6 613.446,607.53C618.119,632.179 600.573,666.56 582.271,682.728C574.917,689.224 560.319,689.507 551.487,693.783C543.778,697.516 529.097,705.013 518.676,707.042C508.566,709.01 498.175,709.397 484.346,707.1C468.811,704.52 451.428,697.585 435.674,687.441C412.487,672.513 386.603,635.625 390.243,607.53C396.12,562.179 428.097,509.743 501.845,509.743Z"/>
                </clipPath>
                <g clip-path="url(#_clip3)">
                    <path d="M520.506,631.609C532.556,628.85 541.435,634.85 543.186,642.494C544.936,650.138 539.553,659.404 527.503,662.164C515.453,664.924 506.573,658.924 504.823,651.28C503.072,643.636 508.455,634.369 520.506,631.609Z" style="fill:white;stroke:black;stroke-width:5px;"/>
                </g>
            </g>
        </g>
        <g id="ear_right">
            <path id="S33" serif:id="S3" d="M571.258,178.838C611.271,178.838 639.793,208.096 639.793,240.752C639.793,273.409 611.271,302.667 571.258,302.667C531.245,302.667 502.724,273.409 502.724,240.752C502.723,208.096 531.245,178.838 571.258,178.838Z" style="stroke:black;stroke-width:5px;"/>
        </g>
        <g id="hat">
            <g id="fluff">
                <path id="S112" serif:id="S1" d="M766.945,225.604C789.121,203.472 759.47,180.994 750.153,164.433C743.611,152.806 743.819,134.96 738.397,122.055C725.212,90.671 681.784,62.647 649.167,86.401C629.161,100.969 628.092,139.391 637.822,160.227C659.854,207.407 711.236,263.769 763.79,228.759C765.028,227.935 765.892,226.655 766.945,225.604Z" style="stroke:black;stroke-width:5px;"/>
            </g>
            <g id="middle">
                <g id="middle1" serif:id="middle">
                    <path id="S113" serif:id="S1" d="M594.272,347.514C584.355,343.799 576.038,340.315 567.265,334.053C553.301,324.086 534.589,309.768 535.765,290.999C537.342,265.808 565.065,254.004 582.021,238.967C600.965,222.166 619.196,196.832 633.803,181.865C643.305,172.13 659.178,153.795 669.498,139.456C671.55,138.748 684.959,151.944 687.717,153.092C699.862,158.148 732.574,167.122 734.131,195.767C709.502,223.721 683.653,246.646 665.823,279.886C657.359,295.665 643.462,345.25 627.117,350.709C618.907,353.451 609.392,353.177 594.272,347.514Z" style="fill:white;stroke:black;stroke-width:5px;"/>
                </g>
                <g id="patch">
                    <clipPath id="_clip4">
                        <path id="S114" serif:id="S1" d="M594.272,347.514C584.355,343.799 576.038,340.315 567.265,334.053C553.301,324.086 534.589,309.768 535.765,290.999C537.342,265.808 565.065,254.004 582.021,238.967C600.965,222.166 619.196,196.832 633.803,181.865C643.305,172.13 659.178,153.795 669.498,139.456C671.55,138.748 684.959,151.944 687.717,153.092C699.862,158.148 732.574,167.122 734.131,195.767C709.502,223.721 683.653,246.646 665.823,279.886C657.359,295.665 643.462,345.25 627.117,350.709C618.907,353.451 609.392,353.177 594.272,347.514Z"/>
                    </clipPath>
                    <g clip-path="url(#_clip4)">
                        <path d="M604.122,231.127C619.213,233.293 637.997,217.163 647.716,207.534C651.061,204.22 657.673,198.239 656.344,192.855C655.021,187.492 645.674,182.419 641.506,179.413C636.489,175.795 630.177,167.002 623.598,166.895C614.09,166.741 589.747,196.387 588.21,205.717C585.952,219.417 592.701,229.487 604.122,231.127Z" style="fill:white;stroke:black;stroke-width:5px;"/>
                    </g>
                </g>
            </g>
            <g id="cap">
                <path id="S24" serif:id="S2" d="M573.534,308.585C595.903,305.742 581.189,279.829 574.797,269.546C561.061,247.449 529.452,218.048 500.264,216.814C492.233,216.475 479.651,219.399 478.971,232.437C478.335,244.642 484.991,256.196 493.808,266.131C511.334,285.88 541.497,309.786 570.676,309.342C571.374,309.216 572.077,309.032 572.63,308.859C572.93,308.764 573.222,308.625 573.534,308.585Z" style="fill:white;stroke:black;stroke-width:5px;"/>
            </g>
            <g id="hole">
                <path id="S25" serif:id="S2" d="M626.161,351.642C645.795,347.406 630.747,325.535 624.285,316.899C610.4,298.344 580.092,274.677 554.094,275.823C546.942,276.138 535.999,279.698 536.397,291.322C536.769,302.202 543.563,311.945 552.15,320.085C569.219,336.266 597.822,355.166 623.683,352.533C624.293,352.368 624.903,352.15 625.38,351.954C625.639,351.847 625.887,351.701 626.161,351.642Z" style="stroke:black;stroke-width:5px;"/>
            </g>
        </g>
        <g id="head">
            <g id="head1" serif:id="head">
                <path id="S115" serif:id="S1" d="M561.022,259.859C627.573,259.859 678.733,311.536 678.733,372.772C678.733,434.009 627.573,485.685 561.022,485.685C494.472,485.685 443.312,434.009 443.312,372.772C443.312,311.536 494.472,259.859 561.022,259.859Z" style="stroke:black;stroke-width:5px;"/>
            </g>
            <g id="mouth_back_shape">
                <clipPath id="_clip5">
                    <path id="S116" serif:id="S1" d="M561.022,259.859C627.573,259.859 678.733,311.536 678.733,372.772C678.733,434.009 627.573,485.685 561.022,485.685C494.472,485.685 443.312,434.009 443.312,372.772C443.312,311.536 494.472,259.859 561.022,259.859Z"/>
                </clipPath>
                <g clip-path="url(#_clip5)">
                    <path d="M563.746,371.088C607.169,342.873 647.586,347.22 663.256,365.54C679.805,384.887 690.852,425.403 639.688,468.121C593.955,506.305 539.687,492.171 505.221,481.697C486.183,475.912 447.894,450.631 444.515,426.186C443.208,416.729 450.199,403.135 457.693,397.222C468.061,389.042 483.932,387.323 501.168,390.312C520.518,393.668 527.775,394.461 563.746,371.088Z" style="fill:white;"/>
                </g>
            </g>
            <g id="eye_brow_left">
                <clipPath id="_clip6">
                    <path id="S26" serif:id="S2" d="M561.022,259.859C627.573,259.859 678.733,311.536 678.733,372.772C678.733,434.009 627.573,485.685 561.022,485.685C494.472,485.685 443.312,434.009 443.312,372.772C443.312,311.536 494.472,259.859 561.022,259.859Z"/>
                </clipPath>
                <g clip-path="url(#_clip6)">
                    <path d="M602.441,281.969C617.006,301.508 612.05,338.801 550.571,384.628C489.092,430.455 451.938,424.552 437.373,405.013C422.808,385.473 427.764,348.181 489.243,302.354C550.722,256.527 587.876,262.43 602.441,281.969Z" style="fill:white;"/>
                </g>
            </g>
            <g id="eye_brow_right">
                <clipPath id="_clip7">
                    <path id="S27" serif:id="S2" d="M561.022,259.859C627.573,259.859 678.733,311.536 678.733,372.772C678.733,434.009 627.573,485.685 561.022,485.685C494.472,485.685 443.312,434.009 443.312,372.772C443.312,311.536 494.472,259.859 561.022,259.859Z"/>
                </clipPath>
                <g clip-path="url(#_clip7)">
                    <path d="M499.974,264.147C516.96,276.017 502.804,303.884 460.82,353.77C427.811,392.992 410.593,406.349 397.238,397.017C380.252,385.148 394.408,357.281 436.392,307.395C469.401,268.172 486.618,254.815 499.974,264.147Z" style="fill:white;"/>
                </g>
            </g>
            <g id="eye_left">
                <clipPath id="_clip8">
                    <path id="S42" serif:id="S4" d="M561.022,259.859C627.573,259.859 678.733,311.536 678.733,372.772C678.733,434.009 627.573,485.685 561.022,485.685C494.472,485.685 443.312,434.009 443.312,372.772C443.312,311.536 494.472,259.859 561.022,259.859Z"/>
                </clipPath>
                <g clip-path="url(#_clip8)">
                    <path d="M506.697,305.787C512.622,308.923 514.072,319.131 503.836,338.43C493.633,357.666 484.41,362.172 478.504,359.047C472.579,355.911 471.129,345.703 481.365,326.404C491.568,307.168 500.791,302.662 506.697,305.787Z" style="stroke:black;stroke-width:5px;"/>
                </g>
            </g>
            <g id="eye_right">
                <clipPath id="_clip9">
                    <path id="S43" serif:id="S4" d="M561.022,259.859C627.573,259.859 678.733,311.536 678.733,372.772C678.733,434.009 627.573,485.685 561.022,485.685C494.472,485.685 443.312,434.009 443.312,372.772C443.312,311.536 494.472,259.859 561.022,259.859Z"/>
                </clipPath>
                <g clip-path="url(#_clip9)">
                    <path d="M466.693,296.069C472.291,298.617 474.719,308.25 465.629,326.111C457.92,341.26 450.546,344.298 445.799,342.137C440.202,339.589 437.774,329.956 446.863,312.095C454.573,296.946 461.946,293.908 466.693,296.069Z" style="stroke:black;stroke-width:5px;"/>
                </g>
            </g>
        </g>
        <g id="mouth">
            <g id="mouth1" serif:id="mouth">
                <path id="S28" serif:id="S2" d="M502.892,484.711C528.854,490.618 555.838,471.285 575.212,458.804C587.279,451.03 600.258,436.519 609.226,425.154C617.565,414.586 629.162,400.109 631.464,387.084C632.002,384.039 631.955,380.184 630.452,376.829C627.669,370.617 616.62,371.176 611.593,372.598C603.874,374.782 595.916,379.801 589.247,382.995C579.561,387.632 569.146,397.173 557.149,398.838C533.278,402.151 513.446,394.078 495.415,398.313C485.349,400.677 478.22,405.235 473.293,417.535C452.947,468.326 476.895,478.797 502.892,484.711Z" style="fill:white;"/>
                <clipPath id="_clip10">
                    <path id="S29" serif:id="S2" d="M502.892,484.711C528.854,490.618 555.838,471.285 575.212,458.804C587.279,451.03 600.258,436.519 609.226,425.154C617.565,414.586 629.162,400.109 631.464,387.084C632.002,384.039 631.955,380.184 630.452,376.829C627.669,370.617 616.62,371.176 611.593,372.598C603.874,374.782 595.916,379.801 589.247,382.995C579.561,387.632 569.146,397.173 557.149,398.838C533.278,402.151 513.446,394.078 495.415,398.313C485.349,400.677 478.22,405.235 473.293,417.535C452.947,468.326 476.895,478.797 502.892,484.711Z"/>
                </clipPath>
                <g clip-path="url(#_clip10)">
                    <g id="mouth_inner">
                        <g id="mouth_inner1" serif:id="mouth_inner">
                            <path id="S117" serif:id="S1" d="M571.904,379.34C582.443,388.247 598.002,382.991 579.382,426.321C558.608,474.665 510.814,485.707 488.547,467.28C469.844,451.803 469.63,414.109 502.704,384.793C530.135,360.479 556.525,366.344 571.904,379.34Z" style="stroke:black;stroke-width:5px;"/>
                        </g>
                        <g id="tongue">
                            <clipPath id="_clip11">
                                <path id="S118" serif:id="S1" d="M571.904,379.34C582.443,388.247 598.002,382.991 579.382,426.321C558.608,474.665 510.814,485.707 488.547,467.28C469.844,451.803 469.63,414.109 502.704,384.793C530.135,360.479 556.525,366.344 571.904,379.34Z"/>
                            </clipPath>
                            <g clip-path="url(#_clip11)">
                                <path d="M582.75,447.024C598.284,463.507 591.004,488.746 573.63,510.869C545.859,546.231 501.256,569.596 475.924,543.734C454.375,521.735 471.583,484.646 500.44,459.545C527.84,435.712 562.698,425.746 582.75,447.024Z" style="fill:white;"/>
                            </g>
                            <clipPath id="_clip12">
                                <path id="S1_2" d="M571.904,379.34C582.443,388.247 598.002,382.991 579.382,426.321C558.608,474.665 510.814,485.707 488.547,467.28C469.844,451.803 469.63,414.109 502.704,384.793C530.135,360.479 556.525,366.344 571.904,379.34Z"/>
                            </clipPath>
                            <g clip-path="url(#_clip12)">
                                <path d="M492.841,391.623C475.776,379.182 453.487,390.295 435.344,409.238C407.356,438.459 391.956,478.768 416.588,500.089C434.537,515.624 462.219,505.284 482.126,483.536C509.377,453.762 519.101,410.766 492.841,391.623Z" style="fill:white;"/>
                            </g>
                        </g>
                    </g>
                </g>
                <path d="M503.422,482.381C528.267,488.301 555.162,470.299 574.565,457.799L575.86,459.808C556.515,472.27 529.442,492.935 502.362,487.042L503.422,482.381Z" style="fill-rule:nonzero;"/>
                <path d="M630.805,386.967C631.334,383.992 630.459,380.506 629.055,377.454L631.848,376.203C633.45,379.862 632.669,384.087 632.123,387.2L630.805,386.967Z" style="fill-rule:nonzero;"/>
                <path d="M630.805,386.967L632.123,387.2" style="fill:none;fill-rule:nonzero;stroke:black;stroke-width:1px;stroke-linecap:butt;"/>
                <path d="M629.055,377.454C627.09,372.033 616.866,373.169 612.14,374.53L611.047,370.666C616.375,369.183 628.248,369.201 631.848,376.203L629.055,377.454Z" style="fill-rule:nonzero;"/>
                <path d="M629.055,377.454L631.848,376.203" style="fill:none;fill-rule:nonzero;stroke:black;stroke-width:1px;stroke-linecap:butt;"/>
                <path d="M612.14,374.53C604.713,376.606 596.384,380.635 589.66,383.857L588.834,382.132C595.448,378.968 603.036,372.957 611.047,370.666L612.14,374.53Z" style="fill-rule:nonzero;"/>
                <path d="M612.14,374.53L611.047,370.666" style="fill:none;fill-rule:nonzero;stroke:black;stroke-width:1px;stroke-linecap:butt;"/>
                <path d="M495.623,399.197C485.688,401.52 480.165,406.625 475.512,418.424L471.074,416.647C476.276,403.845 485.009,399.835 495.208,397.429L495.623,399.197Z" style="fill-rule:nonzero;"/>
                <path d="M495.623,399.197L495.208,397.429" style="fill:none;fill-rule:nonzero;stroke:black;stroke-width:1px;stroke-linecap:butt;"/>
                <path d="M475.512,418.424C455.333,468.185 477.64,476.525 503.422,482.381L502.362,487.042C476.15,481.068 450.561,468.466 471.074,416.647L475.512,418.424Z" style="fill-rule:nonzero;"/>
                <path d="M475.512,418.424L471.074,416.647" style="fill:none;fill-rule:nonzero;stroke:black;stroke-width:1px;stroke-linecap:butt;"/>
            </g>
        </g>
        <g id="snout">
            <path id="S119" serif:id="S1" d="M467.737,364.009C451.251,343.123 410.989,312.116 384.367,337.887C370.39,351.415 385.369,388.293 395.692,400.352C428.48,438.653 497.324,434.914 540.02,423.087C557.082,418.361 584.626,404.984 592.813,393.508C588.529,374.865 569.662,382.92 553.33,384.574C530.211,386.915 487.404,388.927 467.737,364.009Z" style="fill:white;"/>
            <path d="M465.861,365.49C449.638,344.887 410.803,314.499 386.029,339.604L382.704,336.169C411.176,309.733 452.864,341.359 469.613,362.528L465.861,365.49Z" style="fill-rule:nonzero;"/>
            <path d="M386.029,339.604C372.78,351.368 387.492,387.196 397.508,398.797L393.876,401.906C383.246,389.391 368,351.463 382.704,336.169L386.029,339.604Z" style="fill-rule:nonzero;"/>
            <path d="M386.029,339.604L382.704,336.169" style="fill:none;fill-rule:nonzero;stroke:black;stroke-width:1px;stroke-linecap:butt;"/>
            <path d="M397.508,398.797C429.25,436.39 496.994,432.547 539.382,420.784L540.658,425.391C497.655,437.282 427.711,440.916 393.876,401.906L397.508,398.797Z" style="fill-rule:nonzero;"/>
            <path d="M397.508,398.797L393.876,401.906" style="fill:none;fill-rule:nonzero;stroke:black;stroke-width:1px;stroke-linecap:butt;"/>
            <path d="M539.382,420.784C556.183,416.146 583.944,404.003 591.84,392.814L593.786,394.202C585.309,405.965 557.981,420.576 540.658,425.391L539.382,420.784Z" style="fill-rule:nonzero;"/>
            <path d="M539.382,420.784L540.658,425.391" style="fill:none;fill-rule:nonzero;stroke:black;stroke-width:1px;stroke-linecap:butt;"/>
        </g>
        <g id="nose">
            <path id="S120" serif:id="S1" d="M367.996,299.714C377.829,293.09 394.58,295.346 409.01,315.905C419.299,330.564 418.439,353.372 408.605,359.997C398.771,366.621 377.212,358.088 367.592,343.806C353.558,322.975 358.162,306.339 367.996,299.714Z" style="stroke:black;stroke-width:5px;"/>
        </g>
        <g id="ear_left">
            <path id="S210" serif:id="S2" d="M718.452,255.939C759.332,255.939 790.88,287.781 790.88,325.642C790.88,363.503 759.332,395.344 718.452,395.344C677.572,395.344 646.023,363.503 646.023,325.642C646.023,287.781 677.572,255.939 718.452,255.939Z" style="stroke:black;stroke-width:5px;"/>
        </g>
        <g id="hand_left">
            <g id="hand1" serif:id="hand">
                <path id="S121" serif:id="S1" d="M670.677,604.13C706.941,592.327 728.245,605.635 733.554,621.948C738.863,638.26 729.473,661.558 693.208,673.36C656.944,685.163 635.64,671.855 630.331,655.543C625.022,639.231 634.412,615.933 670.677,604.13Z" style="stroke:black;stroke-width:5px;"/>
            </g>
            <g id="thumb1" serif:id="thumb">
                <path id="S122" serif:id="S1" d="M640.018,614.719C624.042,608.18 611.275,585.596 596.01,586.836C583.998,587.811 567.929,599.94 574.077,613.369C579.322,624.827 591.635,633.128 603.112,637.259C616.841,642.202 634.04,643.893 648.159,639.566C661.021,635.625 657.653,622.673 653.863,616.114C651.521,612.06 645.104,616.8 640.018,614.719Z" style="stroke:black;stroke-width:5px;"/>
            </g>
            <g id="index_finger1" serif:id="index_finger">
                <path id="S123" serif:id="S1" d="M638.822,637.545C616.414,648.498 601.911,688.497 618.472,707.54C625.729,715.885 643.457,723.568 647.329,707.998C650.636,694.702 638.06,686.343 640.82,673.989C642.799,665.13 654.203,655.746 652.086,644.711C650.913,638.593 644.419,634.81 638.822,637.545Z" style="stroke:black;stroke-width:5px;"/>
            </g>
            <g id="middle_finger1" serif:id="middle_finger">
                <path id="S211" serif:id="S2" d="M676.008,711.286C683.074,718.327 693.661,726.404 703.807,721.173C733.605,705.809 707.988,692.976 697.767,675.458C693.535,668.206 695.137,658.449 688.754,652.324C684.589,648.327 674.154,645.66 669.599,652.365C660.057,666.412 664.673,699.99 676.008,711.286Z" style="stroke:black;stroke-width:5px;"/>
            </g>
            <g id="little_finger1" serif:id="little_finger">
                <path id="S34" serif:id="S3" d="M725.444,676.255C741.008,684.939 779.723,693.489 786.128,667.096C791.736,643.988 750.268,656.856 740.837,654.871C733.435,653.313 728.8,645.537 721.113,644.812C716.125,644.342 707.933,648.978 708.236,653.875C708.939,665.233 719.312,672.833 725.444,676.255Z" style="stroke:black;stroke-width:5px;"/>
            </g>
        </g>
        <g id="arm_left">
            <path id="S124" serif:id="S1" d="M619.379,482.285C606.781,475.777 590.931,479.791 582.377,491.428C580.688,495.656 580.775,493.332 580.365,497.938C584.521,519.212 627.27,514.621 640.218,529.384C658.685,550.437 647.41,600.951 666.608,621.892C679.894,636.385 698.376,627.836 700.68,609.502C703.924,583.69 698.334,551.235 683.615,530.639C669.819,511.336 642.681,494.321 619.379,482.285Z" style="stroke:black;stroke-width:5px;"/>
        </g>
    </g>
</svg>
